<?xml version="1.0" encoding="UTF-8" standalone="no"?>
<svg
   xmlns:dc="http://purl.org/dc/elements/1.1/"
   xmlns:cc="http://creativecommons.org/ns#"
   xmlns:rdf="http://www.w3.org/1999/02/22-rdf-syntax-ns#"
   xmlns:svg="http://www.w3.org/2000/svg"
   xmlns="http://www.w3.org/2000/svg"
   xmlns:sodipodi="http://sodipodi.sourceforge.net/DTD/sodipodi-0.dtd"
   xmlns:inkscape="http://www.inkscape.org/namespaces/inkscape"
   sodipodi:docname="change_effect.svg"
   inkscape:version="1.0 (4035a4f, 2020-05-01)"
   id="svg8"
   version="1.1"
   viewBox="0 0 4.2333332 4.2333335"
   height="16"
   width="16">
  <defs
     id="defs2" />
  <sodipodi:namedview
     inkscape:window-maximized="1"
     inkscape:window-y="0"
     inkscape:window-x="1440"
     inkscape:window-height="1011"
     inkscape:window-width="1920"
     inkscape:pagecheckerboard="true"
     units="px"
     showgrid="true"
     inkscape:document-rotation="0"
     inkscape:current-layer="layer1"
     inkscape:document-units="px"
     inkscape:cy="8.4014252"
     inkscape:cx="9.7852964"
     inkscape:zoom="44.8"
     inkscape:pageshadow="2"
     inkscape:pageopacity="0.0"
     borderopacity="1.0"
     bordercolor="#666666"
     pagecolor="#ffffff"
     id="base">
    <inkscape:grid
       originy="0"
       originx="0"
       id="grid18"
       type="xygrid" />
  </sodipodi:namedview>
  <metadata
     id="metadata5">
    <rdf:RDF>
      <cc:Work
         rdf:about="">
        <dc:format>image/svg+xml</dc:format>
        <dc:type
           rdf:resource="http://purl.org/dc/dcmitype/StillImage" />
        <dc:title></dc:title>
      </cc:Work>
    </rdf:RDF>
  </metadata>
  <g
     id="layer1"
     inkscape:groupmode="layer"
     inkscape:label="Layer 1">
    <path
       transform="scale(0.26458333)"
       d="M 7.9589844 0 A 7.9999997 7.9999997 0 0 0 0 8.0273438 A 7.9999997 7.9999997 0 0 0 8.0136719 16 A 7.9999997 7.9999997 0 0 0 16 8 L 16 7.9433594 A 7.9999997 7.9999997 0 0 0 7.9589844 0 z M 7.9628906 1 A 6.9999998 6.9999998 0 0 1 15 7.9511719 L 15 8 A 6.9999998 6.9999998 0 0 1 8.0117188 15 A 6.9999998 6.9999998 0 0 1 1 8.0253906 A 6.9999998 6.9999998 0 0 1 7.9628906 1 z "
       style="fill:#ffffff;stroke-width:8.00001;stroke-linecap:round;stroke-linejoin:round;stroke-miterlimit:2.6;paint-order:markers stroke fill"
       id="path20" />
  </g>
</svg>
